<?xml version="1.0" encoding="UTF-8"?>
<svg xmlns="http://www.w3.org/2000/svg" version="1.1" viewBox="0 0 1516 400">
  <defs>
    <style>
      .cls-1 {
        fill: #012a83;
      }
    </style>
  </defs>
  <!-- Generator: Adobe Illustrator 28.6.0, SVG Export Plug-In . SVG Version: 1.2.0 Build 709)  -->
  <g>
    <g id="Layer_1">
      <polygon class="cls-1" points="889.84 183.15 862.47 183.15 876.06 141.79 889.84 183.15"/>
      <path class="cls-1" d="M1017.25,93.89v28.95h39.3v119.38h36.14v-119.38h39.3v-28.95h-114.73Z"/>
      <path class="cls-1" d="M1237.24,181.38c0-11.84-2.5-22.19-7.49-31.06-5.01-8.87-11.95-15.72-20.82-20.5-8.87-4.78-19.01-7.19-30.42-7.19s-22.04,2.47-31.06,7.4c-9.02,4.93-16.02,11.97-21.01,21.12-5.01,9.15-7.51,19.86-7.51,32.13s2.54,22.96,7.62,32.11c5.06,9.15,12.1,16.19,21.12,21.14,9,4.93,19.31,7.38,30.85,7.38,9.58,0,18.24-1.75,25.98-5.27,7.74-3.52,14.19-8.38,19.33-14.59,5.14-6.19,8.7-13.16,10.69-20.91h-38.47c-3.52,7.59-9.79,11.39-18.8,11.39-6.06,0-11.18-1.92-15.32-5.8-4.16-3.86-6.53-9.47-7.08-16.79h81.77c.43-3.67.62-7.19.62-10.56ZM1155.06,171.87c.98-6.49,3.54-11.48,7.7-15,4.16-3.52,9.26-5.29,15.32-5.29s11.63,1.83,15.85,5.5c4.22,3.65,6.34,8.58,6.34,14.78h-45.21Z"/>
      <path class="cls-1" d="M1300.39,213.06c-6.61,0-11.9-2.56-15.83-7.7-3.95-5.14-5.93-12.5-5.93-22.08s1.98-16.94,5.93-22.08c3.93-5.14,9.22-7.72,15.83-7.72,9.3,0,15.57,4.5,18.82,13.53h38.47c-3.11-14.08-9.62-25-19.56-32.75-9.92-7.74-22.27-11.63-37.08-11.63-11.54,0-21.8,2.47-30.74,7.4-8.94,4.93-15.92,11.97-20.91,21.12-5.01,9.15-7.51,19.86-7.51,32.13s2.5,22.96,7.51,32.11c4.99,9.15,11.97,16.19,20.91,21.14,8.94,4.93,19.2,7.38,30.74,7.38,14.66,0,26.97-3.95,36.99-11.82,9.98-7.89,16.53-18.73,19.65-32.56h-38.47c-3.24,9.02-9.51,13.53-18.82,13.53Z"/>
      <path class="cls-1" d="M1472.3,136.47c-8.19-8.94-19.03-13.42-32.56-13.42-7.89,0-15,1.56-21.33,4.65-6.34,3.09-11.35,7.25-15,12.46v-54.29h-36.14v156.36h36.14v-64.02c0-7.89,2.03-14.02,6.12-18.39,4.07-4.35,9.58-6.55,16.47-6.55s12.39,2.2,16.49,6.55c4.07,4.37,6.12,10.5,6.12,18.39v64.02h35.93v-68.89c0-15.64-4.1-27.93-12.25-36.87Z"/>
      <path class="cls-1" d="M381,214.34v-120.45h-36.12v148.33h83.46v-27.88h-47.34Z"/>
      <path class="cls-1" d="M513.94,124.31v64.02c0,7.89-2.05,14.02-6.12,18.39-4.1,4.37-9.66,6.55-16.7,6.55s-12.4-2.18-16.47-6.55c-4.1-4.37-6.12-10.5-6.12-18.39v-64.02h-35.93v68.89c0,10.28,1.9,19.22,5.7,26.84,3.82,7.62,9.15,13.42,16.06,17.43,6.89,4.01,14.87,6.02,23.87,6.02,7.62,0,14.55-1.58,20.82-4.74,6.27-3.18,11.22-7.36,14.89-12.59v16.06h36.14v-117.91h-36.14Z"/>
      <path class="cls-1" d="M653.31,188.44c-4.16-4.86-8.98-8.36-14.46-10.56-5.5-2.18-12.61-4.39-21.36-6.66-7.59-1.69-13.21-3.37-16.79-5.08-3.61-1.69-5.4-4.22-5.4-7.59,0-2.82,1.13-5.03,3.39-6.66,2.24-1.62,5.48-2.43,9.71-2.43,4.93,0,8.92,1.19,11.95,3.58,3.03,2.41,4.82,5.63,5.38,9.73h33.39c-1.26-12.12-6.17-21.85-14.68-29.16-8.53-7.32-20.18-10.99-34.97-10.99-10.01,0-18.62,1.62-25.88,4.86-7.27,3.24-12.76,7.64-16.49,13.21-3.73,5.57-5.59,11.73-5.59,18.5,0,8.02,2.03,14.4,6.12,19.12,4.07,4.71,8.94,8.17,14.57,10.35,5.63,2.2,12.67,4.27,21.14,6.23,7.87,1.98,13.59,3.78,17.11,5.4,3.52,1.62,5.27,4.12,5.27,7.49,0,2.84-1.22,5.12-3.69,6.87-2.45,1.77-5.95,2.65-10.45,2.65-4.93,0-9.09-1.26-12.46-3.8-3.39-2.54-5.29-5.85-5.72-9.94h-35.71c.58,7.62,3.18,14.49,7.83,20.61,4.65,6.12,10.99,10.97,19.01,14.49s17.19,5.27,27.48,5.27c9.58,0,17.98-1.56,25.24-4.65,7.25-3.09,12.82-7.36,16.7-12.78,3.86-5.42,5.8-11.58,5.8-18.5-.15-8.15-2.28-14.68-6.44-19.54Z"/>
      <path class="cls-1" d="M772.52,136.47c-8.17-8.94-19.01-13.42-32.53-13.42-7.89,0-15,1.56-21.33,4.65s-11.35,7.25-15,12.46v-54.29h-36.14v156.36h36.14v-64.02c0-7.89,2.03-14.02,6.12-18.39,4.07-4.35,9.58-6.55,16.47-6.55s12.39,2.2,16.49,6.55c4.07,4.37,6.12,10.5,6.12,18.39v64.02h35.93v-68.89c0-15.64-4.1-27.93-12.27-36.87Z"/>
      <g>
        <path class="cls-1" d="M375.94,287.5v6.36h-10.47v32.94h-7.89v-32.94h-10.47v-6.36h28.83Z"/>
        <path class="cls-1" d="M405.34,326.8l-8.67-15.32h-3.72v15.32h-7.88v-39.31h14.75c3.04,0,5.63.54,7.77,1.6,2.14,1.07,3.74,2.52,4.81,4.34,1.07,1.82,1.6,3.86,1.6,6.11,0,2.59-.75,4.93-2.25,7.01s-3.74,3.52-6.7,4.31l9.4,15.94h-9.12ZM392.95,305.57h6.59c2.14,0,3.73-.52,4.79-1.55,1.05-1.03,1.58-2.47,1.58-4.31s-.53-3.2-1.58-4.2c-1.05-.99-2.65-1.49-4.79-1.49h-6.59v11.54Z"/>
        <path class="cls-1" d="M448.64,319.31h-15.66l-2.59,7.49h-8.28l14.13-39.36h9.18l14.13,39.36h-8.33l-2.59-7.49ZM446.5,313.01l-5.69-16.44-5.69,16.44h11.38Z"/>
        <path class="cls-1" d="M501.86,326.8h-7.88l-17.85-26.97v26.97h-7.88v-39.36h7.88l17.85,27.03v-27.03h7.88v39.36Z"/>
        <path class="cls-1" d="M519.17,325.79c-2.2-.94-3.93-2.29-5.21-4.05-1.28-1.76-1.94-3.85-1.97-6.25h8.45c.11,1.61.69,2.89,1.72,3.83,1.03.94,2.45,1.41,4.25,1.41s3.29-.44,4.34-1.33c1.05-.88,1.58-2.04,1.58-3.46,0-1.16-.36-2.12-1.07-2.87-.71-.75-1.61-1.34-2.68-1.78-1.07-.43-2.54-.91-4.42-1.44-2.55-.75-4.63-1.49-6.22-2.23-1.6-.73-2.97-1.84-4.11-3.32-1.15-1.48-1.72-3.46-1.72-5.94,0-2.33.58-4.35,1.74-6.08,1.16-1.73,2.8-3.05,4.9-3.97,2.1-.92,4.5-1.38,7.21-1.38,4.05,0,7.35.99,9.88,2.96,2.53,1.97,3.93,4.72,4.19,8.25h-8.67c-.08-1.35-.65-2.47-1.72-3.35-1.07-.88-2.49-1.32-4.25-1.32-1.54,0-2.77.39-3.69,1.18-.92.79-1.38,1.93-1.38,3.44,0,1.05.35,1.92,1.04,2.62s1.56,1.26,2.59,1.69c1.03.43,2.49.93,4.36,1.49,2.55.75,4.64,1.5,6.25,2.25,1.61.75,3,1.88,4.17,3.38,1.16,1.5,1.74,3.47,1.74,5.91,0,2.1-.54,4.05-1.63,5.86-1.09,1.8-2.69,3.24-4.79,4.31-2.1,1.07-4.6,1.6-7.49,1.6-2.74,0-5.21-.47-7.4-1.41Z"/>
        <path class="cls-1" d="M574.95,287.5v6.36h-16.39v10.08h12.56v6.25h-12.56v16.61h-7.88v-39.31h24.27Z"/>
        <path class="cls-1" d="M592.01,324.61c-3.08-1.73-5.52-4.12-7.32-7.18-1.8-3.06-2.7-6.52-2.7-10.39s.9-7.27,2.7-10.33c1.8-3.06,4.24-5.45,7.32-7.18,3.08-1.73,6.46-2.59,10.14-2.59s7.1.86,10.16,2.59c3.06,1.73,5.48,4.12,7.26,7.18,1.78,3.06,2.68,6.5,2.68,10.33s-.89,7.33-2.68,10.39c-1.78,3.06-4.21,5.45-7.29,7.18-3.08,1.73-6.46,2.59-10.14,2.59s-7.06-.86-10.14-2.59ZM608.4,318.55c1.8-1.07,3.21-2.6,4.22-4.59,1.01-1.99,1.52-4.3,1.52-6.93s-.51-4.93-1.52-6.9c-1.01-1.97-2.42-3.48-4.22-4.53-1.8-1.05-3.89-1.58-6.25-1.58s-4.46.53-6.28,1.58c-1.82,1.05-3.24,2.56-4.25,4.53-1.01,1.97-1.52,4.27-1.52,6.9s.51,4.94,1.52,6.93c1.01,1.99,2.43,3.52,4.25,4.59,1.82,1.07,3.91,1.6,6.28,1.6s4.45-.54,6.25-1.6Z"/>
        <path class="cls-1" d="M651.76,326.8l-8.67-15.32h-3.72v15.32h-7.88v-39.31h14.75c3.04,0,5.63.54,7.77,1.6,2.14,1.07,3.74,2.52,4.81,4.34,1.07,1.82,1.6,3.86,1.6,6.11,0,2.59-.75,4.93-2.25,7.01s-3.74,3.52-6.7,4.31l9.4,15.94h-9.12ZM639.37,305.57h6.59c2.14,0,3.73-.52,4.79-1.55,1.05-1.03,1.58-2.47,1.58-4.31s-.53-3.2-1.58-4.2c-1.05-.99-2.65-1.49-4.79-1.49h-6.59v11.54Z"/>
        <path class="cls-1" d="M713.82,287.5v39.31h-7.89v-25.57l-10.53,25.57h-5.97l-10.59-25.57v25.57h-7.88v-39.31h8.95l12.5,29.23,12.5-29.23h8.9Z"/>
        <path class="cls-1" d="M732.85,287.5v39.31h-7.88v-39.31h7.88Z"/>
        <path class="cls-1" d="M777.62,326.8h-7.88l-17.85-26.97v26.97h-7.88v-39.36h7.88l17.85,27.03v-27.03h7.88v39.36Z"/>
        <path class="cls-1" d="M816.13,299.32c-.9-1.65-2.14-2.91-3.72-3.77-1.58-.86-3.41-1.29-5.52-1.29-2.33,0-4.39.53-6.2,1.58-1.8,1.05-3.21,2.55-4.22,4.51-1.01,1.95-1.52,4.2-1.52,6.76s.52,4.92,1.55,6.87c1.03,1.95,2.47,3.45,4.31,4.5,1.84,1.05,3.98,1.58,6.42,1.58,3,0,5.46-.8,7.38-2.39,1.91-1.59,3.17-3.82,3.77-6.67h-13.51v-6.03h21.29v6.87c-.53,2.74-1.65,5.28-3.38,7.6s-3.95,4.2-6.67,5.6c-2.72,1.41-5.77,2.11-9.15,2.11-3.79,0-7.22-.85-10.28-2.56-3.06-1.71-5.46-4.08-7.21-7.12-1.75-3.04-2.62-6.49-2.62-10.36s.87-7.33,2.62-10.39c1.75-3.06,4.15-5.44,7.21-7.15,3.06-1.71,6.46-2.56,10.22-2.56,4.43,0,8.28,1.08,11.54,3.24,3.26,2.16,5.52,5.19,6.76,9.09h-9.07Z"/>
        <path class="cls-1" d="M876.81,289.92c3.14,1.61,5.56,3.91,7.26,6.9,1.71,2.99,2.56,6.45,2.56,10.39s-.85,7.39-2.56,10.33c-1.71,2.95-4.13,5.23-7.26,6.84-3.13,1.61-6.77,2.42-10.9,2.42h-13.74v-39.31h13.74c4.13,0,7.76.81,10.9,2.42ZM875.21,316.72c2.25-2.25,3.38-5.42,3.38-9.52s-1.13-7.29-3.38-9.6-5.44-3.46-9.57-3.46h-5.58v25.96h5.58c4.13,0,7.32-1.13,9.57-3.38Z"/>
        <path class="cls-1" d="M920.03,319.31h-15.66l-2.59,7.49h-8.28l14.13-39.36h9.18l14.13,39.36h-8.33l-2.59-7.49ZM917.89,313.01l-5.69-16.44-5.69,16.44h11.38Z"/>
        <path class="cls-1" d="M966.38,287.5v6.36h-10.47v32.94h-7.89v-32.94h-10.47v-6.36h28.83Z"/>
        <path class="cls-1" d="M999.6,319.31h-15.66l-2.59,7.49h-8.28l14.13-39.36h9.18l14.13,39.36h-8.33l-2.59-7.49ZM997.46,313.01l-5.69-16.44-5.69,16.44h11.38Z"/>
        <path class="cls-1" d="M1043.86,287.5v39.31h-7.88v-39.31h7.88Z"/>
        <path class="cls-1" d="M1088.63,326.8h-7.88l-17.85-26.97v26.97h-7.88v-39.36h7.88l17.85,27.03v-27.03h7.88v39.36Z"/>
        <path class="cls-1" d="M1126.53,287.5v6.36h-10.47v32.94h-7.89v-32.94h-10.47v-6.36h28.83Z"/>
        <path class="cls-1" d="M1143.76,324.61c-3.08-1.73-5.52-4.12-7.32-7.18-1.8-3.06-2.7-6.52-2.7-10.39s.9-7.27,2.7-10.33c1.8-3.06,4.24-5.45,7.32-7.18,3.08-1.73,6.46-2.59,10.14-2.59s7.1.86,10.16,2.59c3.06,1.73,5.48,4.12,7.26,7.18,1.78,3.06,2.68,6.5,2.68,10.33s-.89,7.33-2.68,10.39c-1.78,3.06-4.21,5.45-7.29,7.18-3.08,1.73-6.46,2.59-10.14,2.59s-7.06-.86-10.14-2.59ZM1160.15,318.55c1.8-1.07,3.21-2.6,4.22-4.59,1.01-1.99,1.52-4.3,1.52-6.93s-.51-4.93-1.52-6.9c-1.01-1.97-2.42-3.48-4.22-4.53-1.8-1.05-3.89-1.58-6.25-1.58s-4.46.53-6.28,1.58c-1.82,1.05-3.24,2.56-4.25,4.53-1.01,1.97-1.52,4.27-1.52,6.9s.51,4.94,1.52,6.93c1.01,1.99,2.43,3.52,4.25,4.59,1.82,1.07,3.91,1.6,6.28,1.6s4.45-.54,6.25-1.6Z"/>
        <path class="cls-1" d="M1224.65,289.92c3.14,1.61,5.56,3.91,7.26,6.9,1.71,2.99,2.56,6.45,2.56,10.39s-.85,7.39-2.56,10.33c-1.71,2.95-4.13,5.23-7.26,6.84-3.13,1.61-6.77,2.42-10.9,2.42h-13.74v-39.31h13.74c4.13,0,7.76.81,10.9,2.42ZM1223.05,316.72c2.25-2.25,3.38-5.42,3.38-9.52s-1.13-7.29-3.38-9.6-5.44-3.46-9.57-3.46h-5.58v25.96h5.58c4.13,0,7.32-1.13,9.57-3.38Z"/>
        <path class="cls-1" d="M1251.66,293.86v9.86h13.23v6.25h-13.23v10.42h14.92v6.42h-22.81v-39.36h22.81v6.42h-14.92Z"/>
        <path class="cls-1" d="M1277.81,296.7c1.75-3.06,4.13-5.44,7.15-7.15,3.02-1.71,6.41-2.56,10.16-2.56,4.39,0,8.24,1.13,11.54,3.38,3.3,2.25,5.61,5.37,6.93,9.35h-9.07c-.9-1.88-2.17-3.29-3.8-4.23-1.63-.94-3.52-1.41-5.66-1.41-2.29,0-4.33.53-6.11,1.6-1.78,1.07-3.17,2.58-4.17,4.53-1,1.95-1.49,4.24-1.49,6.87s.5,4.87,1.49,6.84c.99,1.97,2.38,3.49,4.17,4.56,1.78,1.07,3.82,1.6,6.11,1.6,2.14,0,4.03-.48,5.66-1.44,1.63-.96,2.9-2.37,3.8-4.25h9.07c-1.31,4.02-3.61,7.14-6.9,9.38s-7.14,3.35-11.57,3.35c-3.76,0-7.14-.85-10.16-2.56-3.02-1.71-5.41-4.08-7.15-7.12-1.75-3.04-2.62-6.49-2.62-10.36s.87-7.33,2.62-10.39Z"/>
        <path class="cls-1" d="M1331.62,287.5v39.31h-7.88v-39.31h7.88Z"/>
        <path class="cls-1" d="M1348.94,325.79c-2.2-.94-3.93-2.29-5.21-4.05-1.28-1.76-1.94-3.85-1.97-6.25h8.45c.11,1.61.69,2.89,1.72,3.83,1.03.94,2.45,1.41,4.25,1.41s3.29-.44,4.34-1.33c1.05-.88,1.58-2.04,1.58-3.46,0-1.16-.36-2.12-1.07-2.87-.71-.75-1.61-1.34-2.68-1.78-1.07-.43-2.54-.91-4.42-1.44-2.55-.75-4.63-1.49-6.22-2.23-1.6-.73-2.97-1.84-4.11-3.32-1.15-1.48-1.72-3.46-1.72-5.94,0-2.33.58-4.35,1.74-6.08,1.16-1.73,2.8-3.05,4.9-3.97,2.1-.92,4.5-1.38,7.21-1.38,4.05,0,7.35.99,9.88,2.96,2.53,1.97,3.93,4.72,4.19,8.25h-8.67c-.08-1.35-.65-2.47-1.72-3.35-1.07-.88-2.49-1.32-4.25-1.32-1.54,0-2.77.39-3.69,1.18-.92.79-1.38,1.93-1.38,3.44,0,1.05.35,1.92,1.04,2.62s1.56,1.26,2.59,1.69c1.03.43,2.49.93,4.36,1.49,2.55.75,4.64,1.5,6.25,2.25,1.61.75,3,1.88,4.17,3.38,1.16,1.5,1.74,3.47,1.74,5.91,0,2.1-.54,4.05-1.63,5.86-1.09,1.8-2.69,3.24-4.79,4.31-2.1,1.07-4.6,1.6-7.49,1.6-2.74,0-5.21-.47-7.4-1.41Z"/>
        <path class="cls-1" d="M1388.33,287.5v39.31h-7.88v-39.31h7.88Z"/>
        <path class="cls-1" d="M1407.59,324.61c-3.08-1.73-5.52-4.12-7.32-7.18-1.8-3.06-2.7-6.52-2.7-10.39s.9-7.27,2.7-10.33c1.8-3.06,4.24-5.45,7.32-7.18,3.08-1.73,6.46-2.59,10.14-2.59s7.1.86,10.16,2.59c3.06,1.73,5.48,4.12,7.26,7.18,1.78,3.06,2.68,6.5,2.68,10.33s-.89,7.33-2.68,10.39c-1.78,3.06-4.21,5.45-7.29,7.18-3.08,1.73-6.46,2.59-10.14,2.59s-7.06-.86-10.14-2.59ZM1423.97,318.55c1.8-1.07,3.21-2.6,4.22-4.59,1.01-1.99,1.52-4.3,1.52-6.93s-.51-4.93-1.52-6.9c-1.01-1.97-2.42-3.48-4.22-4.53-1.8-1.05-3.89-1.58-6.25-1.58s-4.46.53-6.28,1.58c-1.82,1.05-3.24,2.56-4.25,4.53-1.01,1.97-1.52,4.27-1.52,6.9s.51,4.94,1.52,6.93c1.01,1.99,2.43,3.52,4.25,4.59,1.82,1.07,3.91,1.6,6.28,1.6s4.45-.54,6.25-1.6Z"/>
        <path class="cls-1" d="M1480.68,326.8h-7.88l-17.85-26.97v26.97h-7.88v-39.36h7.88l17.85,27.03v-27.03h7.88v39.36Z"/>
      </g>
      <polygon class="cls-1" points="889.84 183.15 862.47 183.15 876.06 141.79 889.84 183.15"/>
      <path class="cls-1" d="M876.06,141.79l-13.59,41.37h27.37l-13.78-41.37ZM876.06,141.79l-13.59,41.37h27.37l-13.78-41.37ZM876.06,141.79l-13.59,41.37h27.37l-13.78-41.37ZM876.06,141.79l-13.59,41.37h27.37l-13.78-41.37ZM1008.63,103.15c-4.37-19.71-20.42-34.82-40.39-37.78-19.2-2.84-41-4.84-65-4.84-18.39,0-40.3,1.17-64.83,4.82-20.18,2.99-36.29,18.28-40.68,38.21-3.97,18.07-6.95,39.7-6.95,64.11,0,16.04,1.3,37.85,6.74,62.96,4.42,20.54,21.78,35.8,42.67,38.06,19.2,2.11,40.32,3.41,63.06,3.41,18.75,0,39.96-.92,63.02-3.41,21.06-2.28,38.32-17.79,42.82-38.49,3.8-17.73,6.61-38.83,6.61-62.53,0-16.43-1.34-38.74-7.06-64.51ZM905.65,231.3l-6.91-20.86h-45.36l-6.89,20.86h-37.38l46.64-127.94h41l46.47,127.94h-37.57ZM982.39,231.3h-35.59v-127.94h35.59v127.94ZM862.47,183.15h27.37l-13.78-41.37-13.59,41.37ZM876.06,141.79l-13.59,41.37h27.37l-13.78-41.37ZM876.06,141.79l-13.59,41.37h27.37l-13.78-41.37ZM876.06,141.79l-13.59,41.37h27.37l-13.78-41.37Z"/>
      <path class="cls-1" d="M228.81,28.52c-3.26,50.9-16.32,111.62-54.04,160.43-43.37,56.11-97.67,84.14-138.76,98.14-.11.04-.23.09-.34.13V28.52h193.14Z"/>
      <path class="cls-1" d="M292.58,231.03v140.97H35.67v-65.73c.11.02.23.04.34.04,33.22,4.84,71.72,4.95,114.03-4.54,60.18-13.5,107.33-41.77,141.98-70.3.19-.15.36-.3.55-.45Z"/>
    </g>
  </g>
</svg>